<mxfile host="app.diagrams.net" modified="2023-04-22T07:25:17.351Z" agent="Mozilla/5.0 (Windows NT 10.0; Win64; x64) AppleWebKit/537.36 (KHTML, like Gecko) Chrome/109.0.0.0 Safari/537.36 Edg/109.0.1518.70" etag="Of562YNPqVdsjlASriYI" version="21.2.1" type="github">
  <diagram id="07fea595-8f29-1299-0266-81d95cde20df" name="Page-1">
    <mxGraphModel dx="1050" dy="549" grid="1" gridSize="10" guides="1" tooltips="1" connect="1" arrows="1" fold="1" page="1" pageScale="1" pageWidth="1169" pageHeight="827" background="#ffffff" math="0" shadow="0">
      <root>
        <mxCell id="0" />
        <mxCell id="1" parent="0" />
        <mxCell id="Hs9g675CFd-XTrQ7votx-217" value="&lt;font color=&quot;#23497d&quot; style=&quot;font-size: 18px;&quot;&gt;业务逻辑层&lt;/font&gt;" style="swimlane;whiteSpace=wrap;fillColor=#dae8fc;swimlaneFillColor=#BAC8D3;fontFamily=Tahoma;html=1;strokeColor=#6c8ebf;opacity=25;startSize=23;fontSize=18;swimlaneLine=1;direction=north;" vertex="1" parent="1">
          <mxGeometry x="80" y="680" width="720" height="160" as="geometry">
            <mxRectangle x="20" y="20" width="80" height="23" as="alternateBounds" />
          </mxGeometry>
        </mxCell>
        <mxCell id="Hs9g675CFd-XTrQ7votx-218" value="地点搜索" style="whiteSpace=wrap;shadow=0;fontColor=#FFFFFF;fontFamily=Helvetica;fontStyle=0;html=1;fontSize=16;plain-purple;strokeColor=none;fillColor=#2f5b7c;gradientColor=none;spacing=6;verticalAlign=middle;direction=south;" vertex="1" parent="Hs9g675CFd-XTrQ7votx-217">
          <mxGeometry x="640" y="20" width="40" height="120" as="geometry" />
        </mxCell>
        <mxCell id="Hs9g675CFd-XTrQ7votx-219" value="数据可视化" style="whiteSpace=wrap;shadow=0;fontColor=#FFFFFF;fontFamily=Helvetica;fontStyle=0;html=1;fontSize=16;plain-purple;strokeColor=none;fillColor=#2f5b7c;gradientColor=none;spacing=6;verticalAlign=middle;direction=south;horizontal=1;" vertex="1" parent="Hs9g675CFd-XTrQ7votx-217">
          <mxGeometry x="40" y="20" width="40" height="120" as="geometry" />
        </mxCell>
        <mxCell id="Hs9g675CFd-XTrQ7votx-220" value="" style="group" vertex="1" connectable="0" parent="Hs9g675CFd-XTrQ7votx-217">
          <mxGeometry x="105" y="10" width="510" height="140" as="geometry" />
        </mxCell>
        <mxCell id="Hs9g675CFd-XTrQ7votx-221" value="" style="rounded=1;whiteSpace=wrap;html=1;fillColor=#12AAB5;opacity=50;" vertex="1" parent="Hs9g675CFd-XTrQ7votx-220">
          <mxGeometry width="509.99999999999994" height="140" as="geometry" />
        </mxCell>
        <mxCell id="Hs9g675CFd-XTrQ7votx-222" value="企业单位影响分析" style="whiteSpace=wrap;shadow=0;fontColor=#FFFFFF;fontFamily=Helvetica;fontStyle=0;html=1;fontSize=16;plain-purple;strokeColor=none;fillColor=#2f5b7c;gradientColor=none;spacing=6;verticalAlign=middle;" vertex="1" parent="Hs9g675CFd-XTrQ7votx-220">
          <mxGeometry x="20.95" y="80" width="149.05" height="46.14" as="geometry" />
        </mxCell>
        <mxCell id="Hs9g675CFd-XTrQ7votx-223" value="公共设施影响分析" style="whiteSpace=wrap;shadow=0;fontColor=#FFFFFF;fontFamily=Helvetica;fontStyle=0;html=1;fontSize=16;plain-purple;strokeColor=none;fillColor=#2f5b7c;gradientColor=none;spacing=6;verticalAlign=middle;" vertex="1" parent="Hs9g675CFd-XTrQ7votx-220">
          <mxGeometry x="181.54999999999998" y="80" width="146.9" height="46.14" as="geometry" />
        </mxCell>
        <mxCell id="Hs9g675CFd-XTrQ7votx-224" value="应急救援建议和规划" style="whiteSpace=wrap;shadow=0;fontColor=#FFFFFF;fontFamily=Helvetica;fontStyle=0;html=1;fontSize=16;plain-purple;strokeColor=none;fillColor=#2f5b7c;gradientColor=none;spacing=6;verticalAlign=middle;" vertex="1" parent="Hs9g675CFd-XTrQ7votx-220">
          <mxGeometry x="340" y="80" width="162.13" height="46.14" as="geometry" />
        </mxCell>
        <mxCell id="Hs9g675CFd-XTrQ7votx-225" value="降雨&amp;amp;内涝模拟" style="whiteSpace=wrap;shadow=0;fontColor=#FFFFFF;fontFamily=Helvetica;fontStyle=0;html=1;fontSize=16;plain-purple;strokeColor=none;fillColor=#2f5b7c;gradientColor=none;spacing=6;verticalAlign=middle;" vertex="1" parent="Hs9g675CFd-XTrQ7votx-220">
          <mxGeometry x="340" y="11.7" width="160" height="46.14" as="geometry" />
        </mxCell>
        <mxCell id="Hs9g675CFd-XTrQ7votx-226" value="人口影响分析" style="whiteSpace=wrap;shadow=0;fontColor=#FFFFFF;fontFamily=Helvetica;fontStyle=0;html=1;fontSize=16;plain-purple;strokeColor=none;fillColor=#2f5b7c;gradientColor=none;spacing=6;verticalAlign=middle;" vertex="1" parent="Hs9g675CFd-XTrQ7votx-220">
          <mxGeometry x="181.55" y="11.7" width="148.45" height="46.14" as="geometry" />
        </mxCell>
        <mxCell id="Hs9g675CFd-XTrQ7votx-227" value="道路交通影响分析" style="whiteSpace=wrap;shadow=0;fontColor=#FFFFFF;fontFamily=Helvetica;fontStyle=0;html=1;fontSize=16;plain-purple;strokeColor=none;fillColor=#2f5b7c;gradientColor=none;spacing=6;verticalAlign=middle;" vertex="1" parent="Hs9g675CFd-XTrQ7votx-220">
          <mxGeometry x="20.95" y="11.69" width="149.05" height="46.14" as="geometry" />
        </mxCell>
        <mxCell id="Hs9g675CFd-XTrQ7votx-228" value="&lt;font color=&quot;#23497d&quot; style=&quot;font-size: 18px;&quot;&gt;表现层&lt;/font&gt;" style="swimlane;whiteSpace=wrap;fillColor=#dae8fc;swimlaneFillColor=#BAC8D3;fontFamily=Tahoma;html=1;strokeColor=#6c8ebf;opacity=50;fontSize=18;swimlaneLine=1;direction=north;container=0;" vertex="1" parent="1">
          <mxGeometry x="80" y="520" width="720" height="160" as="geometry">
            <mxRectangle x="20" y="20" width="80" height="23" as="alternateBounds" />
          </mxGeometry>
        </mxCell>
        <mxCell id="Hs9g675CFd-XTrQ7votx-229" value="" style="rounded=1;whiteSpace=wrap;html=1;fillColor=#12AAB5;opacity=50;" vertex="1" parent="Hs9g675CFd-XTrQ7votx-228">
          <mxGeometry x="40" y="10" width="640" height="137" as="geometry" />
        </mxCell>
        <mxCell id="Hs9g675CFd-XTrQ7votx-230" value="数据可视化&lt;br style=&quot;font-size: 16px;&quot;&gt;Echarts" style="whiteSpace=wrap;strokeColor=none;fillColor=#2f5b7c;shadow=0;fontColor=#FFFFFF;fontFamily=Helvetica;fontStyle=0;html=1;fontSize=16;spacing=6;verticalAlign=middle;" vertex="1" parent="Hs9g675CFd-XTrQ7votx-228">
          <mxGeometry x="85" y="65" width="160" height="60" as="geometry" />
        </mxCell>
        <mxCell id="Hs9g675CFd-XTrQ7votx-231" value="可视化框架&lt;br style=&quot;font-size: 16px;&quot;&gt;ArcGIS API For JS" style="whiteSpace=wrap;shadow=0;fontColor=#FFFFFF;fontFamily=Helvetica;fontStyle=0;html=1;fontSize=16;plain-purple;strokeColor=none;fillColor=#2f5b7c;gradientColor=none;spacing=6;verticalAlign=middle;" vertex="1" parent="Hs9g675CFd-XTrQ7votx-228">
          <mxGeometry x="285" y="65" width="160" height="60" as="geometry" />
        </mxCell>
        <mxCell id="Hs9g675CFd-XTrQ7votx-232" value="&lt;h3 style=&quot;font-size: 16px;&quot;&gt;Web前端&lt;/h3&gt;" style="rounded=0;whiteSpace=wrap;html=1;fillColor=none;strokeColor=none;fontColor=#2F5B7C;fontSize=16;" vertex="1" parent="Hs9g675CFd-XTrQ7votx-228">
          <mxGeometry x="305" y="20" width="120" height="28.5" as="geometry" />
        </mxCell>
        <mxCell id="Hs9g675CFd-XTrQ7votx-233" value="三维可视化&lt;br style=&quot;font-size: 16px;&quot;&gt;Three.js" style="whiteSpace=wrap;strokeColor=none;fillColor=#2f5b7c;shadow=0;fontColor=#FFFFFF;fontFamily=Helvetica;fontStyle=0;html=1;fontSize=16;spacing=6;verticalAlign=middle;" vertex="1" parent="Hs9g675CFd-XTrQ7votx-228">
          <mxGeometry x="485" y="65" width="160" height="60" as="geometry" />
        </mxCell>
        <mxCell id="Hs9g675CFd-XTrQ7votx-234" value="&lt;font color=&quot;#23497d&quot; style=&quot;font-size: 18px;&quot;&gt;应用支持层&lt;/font&gt;" style="swimlane;whiteSpace=wrap;fillColor=#dae8fc;swimlaneFillColor=#BAC8D3;fontFamily=Tahoma;html=1;strokeColor=#6c8ebf;opacity=50;fontSize=18;swimlaneLine=1;direction=north;" vertex="1" parent="1">
          <mxGeometry x="80" y="840" width="720" height="160" as="geometry">
            <mxRectangle x="20" y="20" width="80" height="23" as="alternateBounds" />
          </mxGeometry>
        </mxCell>
        <mxCell id="Hs9g675CFd-XTrQ7votx-235" value="" style="group" vertex="1" connectable="0" parent="Hs9g675CFd-XTrQ7votx-234">
          <mxGeometry x="40" y="15.75" width="574" height="128.5" as="geometry" />
        </mxCell>
        <mxCell id="Hs9g675CFd-XTrQ7votx-236" value="" style="group" vertex="1" connectable="0" parent="Hs9g675CFd-XTrQ7votx-235">
          <mxGeometry x="14" width="399.99999999999994" height="128.5" as="geometry" />
        </mxCell>
        <mxCell id="Hs9g675CFd-XTrQ7votx-237" value="" style="rounded=1;whiteSpace=wrap;html=1;fillColor=#12AAB5;opacity=50;" vertex="1" parent="Hs9g675CFd-XTrQ7votx-236">
          <mxGeometry width="399.99999999999994" height="128.5" as="geometry" />
        </mxCell>
        <mxCell id="Hs9g675CFd-XTrQ7votx-238" value="&lt;h3 style=&quot;font-size: 16px;&quot;&gt;Web后端&lt;/h3&gt;" style="rounded=0;whiteSpace=wrap;html=1;fillColor=none;strokeColor=none;fontColor=#2F5B7C;fontSize=16;" vertex="1" parent="Hs9g675CFd-XTrQ7votx-236">
          <mxGeometry x="33.910034602076124" y="10.063291139240507" width="332.1799307958477" height="28.680379746835445" as="geometry" />
        </mxCell>
        <mxCell id="Hs9g675CFd-XTrQ7votx-239" value="Flask框架" style="whiteSpace=wrap;shadow=0;fontColor=#FFFFFF;fontFamily=Helvetica;fontStyle=0;html=1;fontSize=16;plain-purple;strokeColor=none;fillColor=#2f5b7c;gradientColor=none;spacing=6;verticalAlign=middle;" vertex="1" parent="Hs9g675CFd-XTrQ7votx-236">
          <mxGeometry x="21.959999999999997" y="38.74" width="120" height="28.5" as="geometry" />
        </mxCell>
        <mxCell id="Hs9g675CFd-XTrQ7votx-240" value="ArcPy模块" style="whiteSpace=wrap;shadow=0;fontColor=#FFFFFF;fontFamily=Helvetica;fontStyle=0;html=1;fontSize=16;plain-purple;strokeColor=none;fillColor=#2f5b7c;gradientColor=none;spacing=6;verticalAlign=middle;" vertex="1" parent="Hs9g675CFd-XTrQ7votx-236">
          <mxGeometry x="21.959999999999997" y="81.26" width="120" height="28.5" as="geometry" />
        </mxCell>
        <mxCell id="Hs9g675CFd-XTrQ7votx-241" value="ArcSWAT" style="whiteSpace=wrap;shadow=0;fontColor=#FFFFFF;fontFamily=Helvetica;fontStyle=0;html=1;fontSize=16;plain-purple;strokeColor=none;fillColor=#2f5b7c;gradientColor=none;spacing=6;verticalAlign=middle;" vertex="1" parent="Hs9g675CFd-XTrQ7votx-236">
          <mxGeometry x="258.05" y="38.739999999999995" width="120" height="28.5" as="geometry" />
        </mxCell>
        <mxCell id="Hs9g675CFd-XTrQ7votx-242" value="SWMM" style="whiteSpace=wrap;shadow=0;fontColor=#FFFFFF;fontFamily=Helvetica;fontStyle=0;html=1;fontSize=16;plain-purple;strokeColor=none;fillColor=#2f5b7c;gradientColor=none;spacing=6;verticalAlign=middle;" vertex="1" parent="Hs9g675CFd-XTrQ7votx-236">
          <mxGeometry x="258.05" y="81.26" width="120" height="28.5" as="geometry" />
        </mxCell>
        <mxCell id="Hs9g675CFd-XTrQ7votx-243" value="ArcGIS Server" style="whiteSpace=wrap;shadow=0;fontColor=#FFFFFF;fontFamily=Helvetica;fontStyle=0;html=1;fontSize=16;plain-purple;strokeColor=none;fillColor=#2f5b7c;gradientColor=none;spacing=6;verticalAlign=middle;" vertex="1" parent="Hs9g675CFd-XTrQ7votx-236">
          <mxGeometry x="158.05" y="45.62" width="80" height="54.38" as="geometry" />
        </mxCell>
        <mxCell id="Hs9g675CFd-XTrQ7votx-244" value="中国气象网" style="whiteSpace=wrap;shadow=0;fontColor=#FFFFFF;fontFamily=Helvetica;fontStyle=0;html=1;fontSize=16;plain-purple;strokeColor=none;fillColor=#2f5b7c;gradientColor=none;spacing=6;verticalAlign=middle;" vertex="1" parent="Hs9g675CFd-XTrQ7votx-234">
          <mxGeometry x="520" y="25.81" width="120" height="28.5" as="geometry" />
        </mxCell>
        <mxCell id="Hs9g675CFd-XTrQ7votx-245" value="网络爬虫" style="whiteSpace=wrap;shadow=0;fontColor=#FFFFFF;fontFamily=Helvetica;fontStyle=0;html=1;fontSize=16;plain-purple;strokeColor=none;fillColor=#2f5b7c;gradientColor=none;spacing=6;verticalAlign=middle;" vertex="1" parent="Hs9g675CFd-XTrQ7votx-234">
          <mxGeometry x="520" y="100" width="120" height="28.5" as="geometry" />
        </mxCell>
        <mxCell id="Hs9g675CFd-XTrQ7votx-246" value="&lt;font color=&quot;#23497d&quot; style=&quot;font-size: 18px;&quot;&gt;数据层&lt;/font&gt;" style="swimlane;whiteSpace=wrap;fillColor=#dae8fc;swimlaneFillColor=#BAC8D3;fontFamily=Tahoma;html=1;strokeColor=#6c8ebf;opacity=25;fontSize=18;swimlaneLine=1;strokeWidth=3;direction=north;" vertex="1" parent="1">
          <mxGeometry x="80" y="1000" width="720" height="170" as="geometry">
            <mxRectangle x="20" y="20" width="80" height="23" as="alternateBounds" />
          </mxGeometry>
        </mxCell>
        <mxCell id="Hs9g675CFd-XTrQ7votx-247" value="" style="group" vertex="1" connectable="0" parent="Hs9g675CFd-XTrQ7votx-246">
          <mxGeometry x="80" y="10" width="580" height="140" as="geometry" />
        </mxCell>
        <mxCell id="Hs9g675CFd-XTrQ7votx-248" value="" style="rounded=1;whiteSpace=wrap;html=1;fillColor=#12AAB5;opacity=50;" vertex="1" parent="Hs9g675CFd-XTrQ7votx-247">
          <mxGeometry width="580" height="140" as="geometry" />
        </mxCell>
        <mxCell id="Hs9g675CFd-XTrQ7votx-249" value="&lt;h3 style=&quot;font-size: 16px;&quot;&gt;MongoDB&lt;/h3&gt;" style="rounded=0;whiteSpace=wrap;html=1;fillColor=none;strokeColor=none;fontColor=#2F5B7C;fontSize=16;" vertex="1" parent="Hs9g675CFd-XTrQ7votx-247">
          <mxGeometry x="49.165674740484434" y="10" width="481.6608996539793" height="15.96" as="geometry" />
        </mxCell>
        <mxCell id="Hs9g675CFd-XTrQ7votx-250" value="地面模型数据库" style="whiteSpace=wrap;strokeColor=none;fillColor=#2f5b7c;shadow=0;fontColor=#FFFFFF;fontFamily=Helvetica;fontStyle=0;html=1;fontSize=16;spacing=6;verticalAlign=middle;" vertex="1" parent="Hs9g675CFd-XTrQ7votx-247">
          <mxGeometry x="40" y="30" width="160" height="80" as="geometry" />
        </mxCell>
        <mxCell id="Hs9g675CFd-XTrQ7votx-251" value="气象数据库" style="whiteSpace=wrap;strokeColor=none;fillColor=#2f5b7c;shadow=0;fontColor=#FFFFFF;fontFamily=Helvetica;fontStyle=0;html=1;fontSize=16;spacing=6;verticalAlign=middle;" vertex="1" parent="Hs9g675CFd-XTrQ7votx-247">
          <mxGeometry x="360" y="30" width="160" height="80" as="geometry" />
        </mxCell>
      </root>
    </mxGraphModel>
  </diagram>
</mxfile>
